<svg id="레이어_1" data-name="레이어 1" xmlns="http://www.w3.org/2000/svg" xmlns:xlink="http://www.w3.org/1999/xlink" viewBox="0 0 378.66 87.34"><defs><style>.cls-1,.cls-2,.cls-3{fill-rule:evenodd;}.cls-1{fill:url(#GradientFill_1);}.cls-2{fill:url(#GradientFill_1-2);}.cls-3{fill:#ee7a00;}</style><linearGradient id="GradientFill_1" x1="204.34" y1="214.92" x2="318.99" y2="214.92" gradientUnits="userSpaceOnUse"><stop offset="0" stop-color="#009fe8"/><stop offset="1" stop-color="#1d2087"/></linearGradient><linearGradient id="GradientFill_1-2" x1="279.7" y1="172.16" x2="354.6" y2="172.16" xlink:href="#GradientFill_1"/></defs><title>무제-1</title><path class="cls-1" d="M248.57,182.07c15.2-5.32,30.17-7,42.5-5.55a149.54,149.54,0,0,0-21.71,6.94c-20.6,8.34-35.42,19.57-40,29.1,5.89-2.45,24.53-11,32.84-14.82-.25-1.69,1.62-3.6,4.35-4.37s5.59-.06,6.09,1.68-1.43,3.81-4.3,4.62a6.37,6.37,0,0,1-5.12-.41L228.43,215a9.61,9.61,0,0,0,.65,7.73c6.32-2.57,37.69-16.91,47.71-21.49-.25-1.69,1.62-3.6,4.35-4.38s5.59-.06,6.09,1.68-1.43,3.82-4.3,4.63a6.41,6.41,0,0,1-5.1-.4L230.2,224.33a16.55,16.55,0,0,0,7.46,4.46c7.37-3,28.12-11.91,37-15.74-.16-1.66,1.69-3.51,4.37-4.27,2.87-.81,5.59-.06,6.08,1.68s-1.43,3.81-4.29,4.63a6.35,6.35,0,0,1-5.22-.48l-35,15c13.4,3,35.54-.17,57.28-9A129,129,0,0,0,319,209.81c-5.54,14.55-23.48,29.58-47.45,38-32.93,11.51-64.77,6.13-71.11-12S215.64,193.58,248.57,182.07Z" transform="translate(-199.32 -166.49)"/><path class="cls-2" d="M291.61,176.27a263.69,263.69,0,0,1,29.21-7.78c15.85-3.22,22.53-2.69,22.25,2.56s-6.12,6.79-16.41,6.79S291.61,176.27,291.61,176.27Z" transform="translate(-199.32 -166.49)"/><path class="cls-3" d="M383.89,232.38H342.16c-.12,0-4-.35-3.65-5.75s4.31-21.16,4.31-21.16,1.17-8.1,6.79-8.1H382l9-9.53H348.3s-10.32.44-13.46,10.63C331.57,209,330,224.8,330,224.8c-1.43,7.48-.15,16.59,9.14,17.11h35.72l9-9.53Zm156.94-43.89,27.19.13s11.9-1.12,9.69,15.7-3.44,22-3.44,22c-1.56,8-5.68,14.6-15.52,15.18s-27.89,0-27.89,0-14.31-.38-12.34-12.91,5.77-28.91,5.77-28.91a15.66,15.66,0,0,1,16.54-11.21Zm1.55,8.95c-9.28-.52-9.67,5.81-9.67,5.81s-3.78,15.94-4.57,23.12,8.49,6.27,8.49,6.27,13.45.39,20,0a8.56,8.56,0,0,0,8-6s1.53-7.51,3.13-18.68-5-10.42-5-10.42l-20.3-.09Zm-89.86,45.38h9.15l8.09-39.18s.92-6.26,8.88-6,27.43,0,27.43,0l-7.84,45.71h8.88l10.45-56.16H480.73s-15.93-1.05-19.85,15.41-8.36,40.22-8.36,40.22Zm-55.26-44.35c3.15-10.19,13.47-10.63,13.47-10.63h42.7l-9,9.53H412c-5.61,0-6.79,8.1-6.79,8.1s-.47,1.88-1.1,4.57H450l-10,9.54H402.05a65.43,65.43,0,0,0-1.12,7c-.38,5.4,3.53,5.74,3.66,5.75h41.73l-9,9.53H401.59c-9.29-.52-10.57-9.63-9.15-17.11C392.44,224.8,394,209,397.26,198.47Z" transform="translate(-199.32 -166.49)"/></svg>