<svg width="143" height="54" viewBox="0 0 143 54" fill="none" xmlns="http://www.w3.org/2000/svg">
<g id="Univerza Logo">
<path id="Vector" d="M44.2076 0H43.334V53.5897H44.2076V0Z" fill="#58595B"/>
<path id="Vector_2" d="M5.30665 29.4477H6.60866V27.3981C6.60793 27.3129 6.59038 27.2287 6.55702 27.1503C6.52366 27.072 6.47515 27.0009 6.41428 26.9414C6.3534 26.8818 6.28135 26.8348 6.20227 26.8032C6.12318 26.7715 6.03863 26.7558 5.95345 26.7569C5.86867 26.7558 5.78452 26.7715 5.70591 26.8033C5.6273 26.8351 5.55581 26.8822 5.49559 26.9419C5.43538 27.0015 5.38767 27.0726 5.35523 27.151C5.32278 27.2293 5.30627 27.3133 5.30665 27.3981V29.4477Z" fill="#E03128"/>
<path id="Vector_3" d="M3.46607 22.7559H2.16406V25.4495H3.46607V22.7559Z" fill="#E03128"/>
<path id="Vector_4" d="M22.3182 8.2434V8.67741V8.83421H23.1835V8.2434C23.1824 7.91849 23.0771 7.60251 22.883 7.34192C22.689 7.08133 22.4164 6.8899 22.1054 6.79579V0.00292969H21.2402V7.6078H21.6686C21.8407 7.60704 22.0061 7.6743 22.1288 7.79491C22.2515 7.91553 22.3216 8.07974 22.3238 8.2518" fill="#E03128"/>
<path id="Vector_5" d="M12.8879 22.7559H11.5859V25.4495H12.8879V22.7559Z" fill="#E03128"/>
<path id="Vector_6" d="M2.16799 29.4477H3.4672V27.3981C3.46647 27.3129 3.44892 27.2287 3.41556 27.1503C3.3822 27.072 3.3337 27.0009 3.27282 26.9414C3.21194 26.8818 3.13989 26.8348 3.06081 26.8032C2.98173 26.7715 2.89717 26.7558 2.812 26.7569C2.72735 26.7558 2.64333 26.7716 2.56487 26.8034C2.48642 26.8351 2.4151 26.8823 2.35511 26.942C2.29512 27.0017 2.24767 27.0729 2.21554 27.1512C2.18341 27.2295 2.16724 27.3134 2.16799 27.3981V29.4477Z" fill="#E03128"/>
<path id="Vector_7" d="M3.46607 36.8735H2.16406V38.8196H3.46607V36.8735Z" fill="#E03128"/>
<path id="Vector_8" d="M12.2411 26.7457C12.156 26.7446 12.0714 26.7603 11.9923 26.7919C11.9133 26.8236 11.8412 26.8706 11.7803 26.9301C11.7194 26.9897 11.6709 27.0607 11.6376 27.1391C11.6042 27.2175 11.5867 27.3017 11.5859 27.3869V29.4477H12.8879V27.3981C12.8883 27.3133 12.8718 27.2293 12.8394 27.1509C12.8069 27.0726 12.7592 27.0015 12.699 26.9418C12.6388 26.8821 12.5673 26.835 12.4887 26.8033C12.4101 26.7715 12.3259 26.7557 12.2411 26.7569" fill="#E03128"/>
<path id="Vector_9" d="M9.74394 22.7559H8.45312V25.4495H9.74394V22.7559Z" fill="#E03128"/>
<path id="Vector_10" d="M6.61061 22.7559H5.30859V25.4495H6.61061V22.7559Z" fill="#E03128"/>
<path id="Vector_11" d="M8.45312 29.4478H9.74394V27.3982C9.73314 27.2344 9.66045 27.0808 9.5406 26.9686C9.42075 26.8564 9.26272 26.7939 9.09854 26.7939C8.93436 26.7939 8.77632 26.8564 8.65647 26.9686C8.53662 27.0808 8.46392 27.2344 8.45312 27.3982V29.4478Z" fill="#E03128"/>
<path id="Vector_12" d="M0.865208 22.7559H0V40.9728H12.8857V40.1048H0.865208V31.5899H12.8857V30.7303H0.865208V22.7559Z" fill="#E03128"/>
<path id="Vector_13" d="M3.46607 32.8862H2.16406V35.5799H3.46607V32.8862Z" fill="#E03128"/>
<path id="Vector_14" d="M18.3004 10.8866H24.9756L26.02 14.7898H26.9217L25.6448 10.027H17.662L17.634 10.0186L16.3516 14.7814H17.256L18.3004 10.8866Z" fill="#E03128"/>
<path id="Vector_15" d="M12.8879 32.8862H11.5859V35.5799H12.8879V32.8862Z" fill="#E03128"/>
<path id="Vector_16" d="M17.4806 34.824V41.768H18.3458V34.824C18.3391 34.3085 18.1297 33.8164 17.7629 33.4543C17.396 33.0922 16.9012 32.8891 16.3857 32.8892H16.3438V33.7516H16.3857C16.5276 33.7508 16.6681 33.7781 16.7994 33.8317C16.9306 33.8854 17.05 33.9644 17.1506 34.0643C17.2513 34.1642 17.3313 34.283 17.386 34.4138C17.4406 34.5446 17.469 34.685 17.4694 34.8268" fill="#E03128"/>
<path id="Vector_17" d="M12.8879 36.8735H11.5859V38.8196H12.8879V36.8735Z" fill="#E03128"/>
<path id="Vector_18" d="M6.61061 36.8735H5.30859V38.8196H6.61061V36.8735Z" fill="#E03128"/>
<path id="Vector_19" d="M6.61061 32.8862H5.30859V35.5799H6.61061V32.8862Z" fill="#E03128"/>
<path id="Vector_20" d="M9.74394 36.8735H8.45312V38.8196H9.74394V36.8735Z" fill="#E03128"/>
<path id="Vector_21" d="M9.74394 32.8862H8.45312V35.5799H9.74394V32.8862Z" fill="#E03128"/>
<path id="Vector_22" d="M24.9199 29.4477H26.2219V27.3981C26.2212 27.3129 26.2037 27.2287 26.1703 27.1503C26.137 27.072 26.0884 27.0009 26.0276 26.9414C25.9667 26.8818 25.8946 26.8348 25.8155 26.8032C25.7365 26.7715 25.6519 26.7558 25.5667 26.7569C25.482 26.7558 25.3978 26.7715 25.3192 26.8033C25.2406 26.8351 25.1691 26.8822 25.1089 26.9419C25.0487 27.0015 25.0009 27.0726 24.9685 27.151C24.9361 27.2293 24.9195 27.3133 24.9199 27.3981V29.4477Z" fill="#E03128"/>
<path id="Vector_23" d="M34.8787 36.8735H33.5879V38.8196H34.8787V36.8735Z" fill="#E03128"/>
<path id="Vector_24" d="M31.7493 32.8862H30.4473V35.5799H31.7493V32.8862Z" fill="#E03128"/>
<path id="Vector_25" d="M34.8787 32.8862H33.5879V35.5799H34.8787V32.8862Z" fill="#E03128"/>
<path id="Vector_26" d="M34.8825 30.7305H30.4473V31.5901H34.8825V30.7305Z" fill="#E03128"/>
<path id="Vector_27" d="M34.8825 40.1045H30.4473V40.9725H34.8825V40.1045Z" fill="#E03128"/>
<path id="Vector_28" d="M31.7493 36.8735H30.4473V38.8196H31.7493V36.8735Z" fill="#E03128"/>
<path id="Vector_29" d="M3.06264 13.4763H15.0607V12.6167H2.39903L0.0078125 21.462H12.8851V20.5912H1.14462L3.06264 13.4763Z" fill="#E03128"/>
<path id="Vector_30" d="M34.8787 22.7559H33.5879V25.4495H34.8787V22.7559Z" fill="#E03128"/>
<path id="Vector_31" d="M34.8825 20.5913H30.4473V21.4593H34.8825V20.5913Z" fill="#E03128"/>
<path id="Vector_32" d="M30.4473 29.4477H31.7493V27.3981C31.7486 27.3129 31.731 27.2287 31.6976 27.1503C31.6643 27.072 31.6158 27.0009 31.5549 26.9414C31.494 26.8818 31.422 26.8348 31.3429 26.8032C31.2638 26.7715 31.1793 26.7558 31.0941 26.7569C31.0093 26.7558 30.9251 26.7715 30.8465 26.8033C30.7679 26.8351 30.6964 26.8822 30.6362 26.9419C30.576 27.0015 30.5283 27.0726 30.4958 27.151C30.4634 27.2293 30.4469 27.3133 30.4473 27.3981V29.4477Z" fill="#E03128"/>
<path id="Vector_33" d="M34.8823 12.6167H28.2715V13.4763H34.8823V12.6167Z" fill="#E03128"/>
<path id="Vector_34" d="M28.2715 41.4571L29.1451 40.9727V16.5005H28.2715V41.4571Z" fill="#E03128"/>
<path id="Vector_35" d="M34.2358 26.7457C34.1512 26.7445 34.0672 26.7603 33.9887 26.7921C33.9103 26.8239 33.8389 26.8711 33.7789 26.9308C33.719 26.9905 33.6715 27.0616 33.6394 27.1399C33.6072 27.2183 33.5911 27.3022 33.5918 27.3869V29.4477H34.8826V27.3981C34.883 27.3133 34.8665 27.2293 34.8341 27.1509C34.8016 27.0726 34.7539 27.0015 34.6937 26.9418C34.6335 26.8821 34.562 26.835 34.4834 26.8033C34.4048 26.7715 34.3206 26.7557 34.2358 26.7569" fill="#E03128"/>
<path id="Vector_36" d="M31.7493 22.7559H30.4473V25.4495H31.7493V22.7559Z" fill="#E03128"/>
<path id="Vector_37" d="M24.9897 34.8239V41.7679H25.8549V34.8239C25.8553 34.682 25.8836 34.5417 25.9383 34.4109C25.993 34.28 26.073 34.1613 26.1736 34.0614C26.2743 33.9615 26.3937 33.8825 26.5249 33.8288C26.6562 33.7752 26.7967 33.7479 26.9385 33.7486H26.9805V32.8862H26.9385C26.423 32.8862 25.9283 33.0892 25.5614 33.4514C25.1946 33.8135 24.9851 34.3056 24.9785 34.821" fill="#E03128"/>
<path id="Vector_38" d="M22.3195 30.733H21.0175V28.2466C21.0284 28.0813 21.1017 27.9263 21.2226 27.8131C21.3434 27.6999 21.5029 27.6369 21.6685 27.6369C21.8342 27.6369 21.9936 27.6999 22.1145 27.8131C22.2354 27.9263 22.3087 28.0813 22.3195 28.2466V30.733ZM23.1819 28.2466C23.1651 27.8565 22.9984 27.4879 22.7164 27.2178C22.4344 26.9477 22.059 26.7969 21.6685 26.7969C21.278 26.7969 20.9026 26.9477 20.6207 27.2178C20.3387 27.4879 20.1719 27.8565 20.1551 28.2466V30.733H16.3555V31.5926H26.9956V30.733H23.1819V28.2466Z" fill="#E03128"/>
<path id="Vector_39" d="M24.7012 16.5284L21.6604 14.7812L21.6436 14.77L18.6308 16.5172V18.004H16.3516V18.8721H19.496V17.01L21.652 15.7724L23.836 17.0212V18.8721H26.9805V18.004H24.7012V16.5284Z" fill="#E03128"/>
<path id="Vector_40" d="M17.1133 29.4477H18.4153V27.3981C18.4157 27.3133 18.3992 27.2293 18.3667 27.151C18.3343 27.0726 18.2866 27.0015 18.2263 26.9419C18.1661 26.8822 18.0946 26.8351 18.016 26.8033C17.9374 26.7715 17.8533 26.7558 17.7685 26.7569C17.6833 26.7558 17.5988 26.7715 17.5197 26.8032C17.4406 26.8348 17.3685 26.8818 17.3077 26.9414C17.2468 27.0009 17.1983 27.072 17.1649 27.1503C17.1316 27.2287 17.114 27.3129 17.1133 27.3981V29.4477Z" fill="#E03128"/>
<path id="Vector_41" d="M23.62 41.7677V34.8237C23.5749 34.3373 23.3497 33.8853 22.9887 33.5563C22.6277 33.2273 22.1569 33.0449 21.6684 33.0449C21.18 33.0449 20.7091 33.2273 20.3481 33.5563C19.9871 33.8853 19.762 34.3373 19.7168 34.8237V41.7677H20.5792V34.8237C20.5934 34.5447 20.7141 34.2818 20.9166 34.0894C21.1191 33.897 21.3877 33.7897 21.667 33.7897C21.9463 33.7897 22.215 33.897 22.4174 34.0894C22.6199 34.2818 22.7407 34.5447 22.7548 34.8237V41.7677H23.62Z" fill="#E03128"/>
<path id="Vector_42" d="M14.1875 40.9727L15.0611 41.4571V16.5005H14.1875V40.9727Z" fill="#E03128"/>
<path id="Vector_43" d="M22.5385 18.1275C22.5368 17.9558 22.4844 17.7884 22.3878 17.6463C22.2913 17.5043 22.1548 17.394 21.9958 17.3293C21.8367 17.2646 21.662 17.2484 21.4937 17.2827C21.3254 17.317 21.171 17.4003 21.05 17.5222C20.9289 17.644 20.8466 17.7989 20.8133 17.9674C20.7801 18.1359 20.7974 18.3105 20.8632 18.4692C20.9289 18.6278 21.04 18.7635 21.1827 18.8592C21.3253 18.9549 21.4931 19.0062 21.6648 19.0067C21.7799 19.0064 21.8938 18.9833 22 18.939C22.1062 18.8946 22.2026 18.8297 22.2837 18.7481C22.3649 18.6664 22.4291 18.5696 22.4728 18.4631C22.5165 18.3567 22.5388 18.2426 22.5385 18.1275Z" fill="#E03128"/>
<path id="Vector_44" d="M18.4153 22.7559H17.1133V25.4495H18.4153V22.7559Z" fill="#E03128"/>
<path id="Vector_45" d="M21.6923 19.7344C20.795 19.7299 19.9233 20.0333 19.2227 20.594H16.3555V21.462H19.5447C20.1196 20.9036 20.8895 20.5912 21.6909 20.5912C22.4924 20.5912 23.2623 20.9036 23.8371 21.462H26.9816V20.594H24.1619C23.4604 20.0351 22.5893 19.7319 21.6923 19.7344Z" fill="#E03128"/>
<path id="Vector_46" d="M23.1811 25.4495V23.3999C23.1643 23.0098 22.9976 22.6412 22.7156 22.3711C22.4336 22.101 22.0582 21.9502 21.6677 21.9502C21.2772 21.9502 20.9018 22.101 20.6198 22.3711C20.3379 22.6412 20.1711 23.0098 20.1543 23.3999V25.4495H21.0167V23.3999C21.0275 23.2346 21.1009 23.0797 21.2217 22.9664C21.3426 22.8532 21.5021 22.7902 21.6677 22.7902C21.8333 22.7902 21.9928 22.8532 22.1137 22.9664C22.2346 23.0797 22.3079 23.2346 22.3187 23.3999V25.4495H23.1811Z" fill="#E03128"/>
<path id="Vector_47" d="M26.2219 22.7559H24.9199V25.4495H26.2219V22.7559Z" fill="#E03128"/>
<path id="Vector_48" d="M17.494 43.0643L16.3516 42.4175V43.4143L17.2616 43.9239H26.0704L26.9805 43.4143V42.4175L25.838 43.0643H17.494Z" fill="#E03128"/>
<path id="Vector_49" d="M78.7603 12.6255H76.5566V22.42H78.7603V12.6255Z" fill="#58595B"/>
<path id="Vector_50" d="M88.0633 36.8149C88.0633 38.1365 87.4753 39.1669 85.9577 39.1669C84.6361 39.1669 83.8521 38.4809 83.8521 36.8149V31.1841H81.6484V36.8653C81.6484 39.5085 83.0176 41.1746 85.9577 41.1746C88.6009 41.1746 90.2669 39.8502 90.2669 36.8653V31.1841H88.0633V36.8149Z" fill="#58595B"/>
<path id="Vector_51" d="M73.7637 33.0461H76.4097V40.1946C76.4097 41.3146 76.3117 42.8882 75.6733 43.9158H77.9749C78.5153 42.8378 78.6133 41.5666 78.6133 40.0462V31.1841H73.7637V33.0461Z" fill="#58595B"/>
<path id="Vector_52" d="M57.3103 22.616C59.9564 22.616 61.6196 21.2944 61.6196 18.3067V12.6255H59.416V18.2479C59.416 19.5723 58.8308 20.6 57.3103 20.6C55.9887 20.6 55.2047 19.9139 55.2047 18.2479V12.6255H53.0039V18.3067C53.0039 20.95 54.3731 22.616 57.3103 22.616Z" fill="#58595B"/>
<path id="Vector_53" d="M57.31 37.5989L54.7648 31.1841H52.2168L56.526 40.9758H58.0436L62.3529 31.1841H59.8553L57.31 37.5989Z" fill="#58595B"/>
<path id="Vector_54" d="M85.9553 19.0403L83.3597 12.6255H80.8145L85.1713 22.4172H86.6917L91.0485 12.6255H88.5509L85.9553 19.0403Z" fill="#58595B"/>
<path id="Vector_55" d="M120.231 20.558H115.435L120.085 13.8491V12.6255H112.691V14.4847H117.196L112.545 21.1936V22.4172H120.231V20.558Z" fill="#58595B"/>
<path id="Vector_56" d="M73.4203 22.4172V12.6255H71.2671V18.3067L65.8799 12.6255H64.6562V22.4172H66.8123V16.6407L72.1967 22.4172H73.4203Z" fill="#58595B"/>
<path id="Vector_57" d="M69.6509 31.1841H67.4473V40.9758H73.7641V39.1165H69.6509V31.1841Z" fill="#58595B"/>
<path id="Vector_58" d="M104.859 14.4875H106.035C107.259 14.4875 107.847 14.9775 107.847 15.8595C107.847 16.7891 107.259 17.2791 106.035 17.2791H104.859V14.4875ZM104.859 19.0403H105.643L107.063 20.9024C108.043 22.224 108.776 22.6636 110.196 22.616V20.656C109.608 20.656 109.168 20.2163 108.482 19.2867L108.09 18.7463C109.21 18.2563 110.148 17.2791 110.148 15.8091C110.148 13.8491 108.58 12.6255 106.083 12.6255H102.703V22.4256H104.859V19.0403Z" fill="#58595B"/>
<path id="Vector_59" d="M125.62 18.6481L126.794 15.5681L127.97 18.6481H125.62ZM131.887 22.4197L127.628 12.6196H125.948L121.639 22.4197H124.136L124.87 20.4597H128.642L129.375 22.4197H131.887Z" fill="#58595B"/>
<path id="Vector_60" d="M120.574 37.2069L121.75 34.1269L122.926 37.2069H120.574ZM120.919 31.1841L116.609 40.9842H119.107L119.841 39.0242H123.612L124.346 40.9842H126.843L122.582 31.1841H120.919Z" fill="#58595B"/>
<path id="Vector_61" d="M135.509 36.8625L130.122 31.1841H128.898V40.9758H131.052V35.1993L136.439 40.9758H137.663V31.1841H135.509V36.8625Z" fill="#58595B"/>
<path id="Vector_62" d="M99.8124 20.558H95.3071V18.2563H99.3224V16.3943H95.3071V14.4847H99.7648V12.6255H93.1035V22.4172H99.8124V20.558Z" fill="#58595B"/>
<path id="Vector_63" d="M143 31.1841H140.797V40.9786H143V31.1841Z" fill="#58595B"/>
<path id="Vector_64" d="M109.705 33.0461H112.348V40.1946C112.348 41.3146 112.253 42.8882 111.615 43.9158H113.916C114.454 42.8378 114.552 41.5666 114.552 40.0462V31.1841H109.705V33.0461Z" fill="#58595B"/>
<path id="Vector_65" d="M96.8672 39.1666H95.5456V36.8649H96.8672C97.9452 36.8649 98.4352 37.2569 98.4352 38.0381C98.4352 38.7746 97.9452 39.1582 96.8672 39.1582M95.5456 32.9393H96.4276C97.4076 32.9393 97.8976 33.2809 97.8976 34.0145C97.8976 34.7985 97.4076 35.1345 96.4276 35.1345H95.5456V32.9393ZM98.9756 35.7029C99.6644 35.3613 100.149 34.7201 100.149 33.6729C100.149 32.0069 98.9252 31.1753 96.7692 31.1753H93.3027V40.9754H97.1696C99.3732 40.9754 100.745 40.239 100.745 38.2313C100.745 36.9881 100.168 36.0697 98.984 35.7113" fill="#58595B"/>
<path id="Vector_66" d="M105.592 31.1841H103.389V40.9758H109.706V39.1165H105.592V31.1841Z" fill="#58595B"/>
</g>
</svg>
